# xmcd CD database file
#
# Track frame offsets:
#	150
#	23843
#	54079
#	63442
#	100160
#	126998
#	156573
#	175431
#	200169
#	234460
#
# Disc length: 3398 seconds
#
# Revision: 0
# Processed by: cddbd v1.5.1PL0 Copyright (c) Steve Scherf et al.
# Submitted via: CDex 1.51
#
DISCID=8b0d440a
DTITLE=Maurizio Giammarco Heart Quartet - In our hands
DYEAR=1995
DGENRE=Jazz
TTITLE0=Generation
TTITLE1=Autumn breed
TTITLE2=Fingers of fortune
TTITLE3=Like a fish
TTITLE4=One as a pair
TTITLE5=B witch
TTITLE6=Falling in love with love
TTITLE7=El gordo
TTITLE8=Outras palavras
TTITLE9=Emanation
EXTD=YEAR: 1995
EXTT0=
EXTT1=
EXTT2=
EXTT3=
EXTT4=
EXTT5=
EXTT6=
EXTT7=
EXTT8=
EXTT9=
PLAYORDER=
